# xmcd
#
# Track frame offsets: 
#        150
#        16930
#        28787
#        38537
#        50412
#        60412
#        73837
#        88452
#        101680
#        116780
#        127035
#        140792
#        154922
#        167107
#        181932
#        195820
#        207350
#        217727
#        228295
#        242507
#        256392
#        265122
#        276755
#        289497
#        299437
#        309775
#        318425
#        327692
#
# Disc length: 4546 seconds
#
# Revision: 2
# Processed by: cddbd v1.5.2PL0 Copyright (c) Steve Scherf et al.
# Submitted via: ExactAudioCopy v1.0b3
#
DISCID=a511c01c
DTITLE=Bill Monroe - Bluegrass 1959-1969 Vol. 4
DYEAR=1991
DGENRE=Bluegrass
TTITLE0=Midnight on the Stormy Deep
TTITLE1=All the Good Times are Past and Gone
TTITLE2=Soldier's Joy
TTITLE3=Blue Night
TTITLE4=Grey Eagle
TTITLE5=The Gold Rush
TTITLE6=Sally Goodin'
TTITLE7=Virginia Darlin'
TTITLE8=Is the Blue Moon Still Shining?
TTITLE9=Train 45
TTITLE10=Kentucky Mandolin
TTITLE11=I Want to Go with You
TTITLE12=Crossing the Cumberlands
TTITLE13=Walls of Time
TTITLE14=I Haven't Seen Mary in Years
TTITLE15=Fire Ball Mail
TTITLE16=The Dead March
TTITLE17=Cripple Creek
TTITLE18=What About You?
TTITLE19=With Body and Soul
TTITLE20=Methodist Preacher
TTITLE21=Walk Softly on My Heart
TTITLE22=Tall Pines
TTITLE23=Candy Gal
TTITLE24=Going Up Caney
TTITLE25=The Lee Weddin' Tune
TTITLE26=Bonny
TTITLE27=Mary and the Miles in Between
EXTD=
EXTT0=
EXTT1=
EXTT2=
EXTT3=
EXTT4=
EXTT5=
EXTT6=
EXTT7=
EXTT8=
EXTT9=
EXTT10=
EXTT11=
EXTT12=
EXTT13=
EXTT14=
EXTT15=
EXTT16=
EXTT17=
EXTT18=
EXTT19=
EXTT20=
EXTT21=
EXTT22=
EXTT23=
EXTT24=
EXTT25=
EXTT26=
EXTT27=
PLAYORDER=
